<svg width="52" height="70" viewBox="0 0 52 70" fill="none" xmlns="http://www.w3.org/2000/svg">
<path d="M14.1667 0C15.985 5.70625 20.5858 10.0158 24.0279 14.6542C24.9629 15.9146 24.7467 17.3354 25.4483 18.6304C26.0004 19.65 27.0967 20.4554 27.9167 21.25C23.4867 21.4525 19.9683 24.3383 16.3688 26.6458C14.4567 27.8717 12.8913 28.4433 12.5 30.8333C12.9229 30.3587 13.0454 30.1617 13.3333 29.5833C13.7442 30.1996 13.75 30.0846 13.75 30.8333L15.4167 28.3333L15 29.1667C15.8577 28.968 16.6947 28.689 17.5 28.3333L17.0833 27.0833C17.9542 27.2446 17.7963 27.2433 17.9167 26.25C18.0583 27.0908 18.0513 27.4867 17.9167 28.3333L19.1667 27.9167L18.75 26.6667C19.4679 27.0558 20.0442 27.3062 20.8333 27.5C21.4342 26.3629 22.1533 25.4096 22.5 24.1667C22.7342 24.9171 22.8433 25.4675 22.9167 26.25C23.4258 25.2987 23.605 24.405 23.75 23.3333L24.1667 25C24.4521 24.48 24.4788 24.355 24.5833 23.75C25.2746 24.6142 25.1804 24.9321 25.4167 23.75C25.8275 24.3662 25.8333 24.2512 25.8333 25C26.0925 24.1904 26.015 23.7712 25.8333 22.9167H27.0833C28.2433 22.3308 28.6296 23.0246 28.3333 24.1667C29.9958 23.7875 31.2908 24.1629 32.9167 24.5833C32.6371 23.4179 32.605 23.025 33.3333 22.0833C33.3108 23.02 34.1363 23.6383 34.5833 24.5833L33.75 24.1667C34.6713 25.1854 36.1717 24.8571 37.5 25C36.5346 25.4 36.0396 25.4929 35 25.4167C35.4217 27.4287 36.5 27.3579 38.3333 27.5C37.1963 27.8375 36.1875 27.9079 35 27.9167C35.8388 28.4271 36.5246 28.6021 37.5 28.75C36.6592 28.8917 36.2633 28.8846 35.4167 28.75C36.8342 30.5875 38.0492 31.5896 40.4167 31.6667C40.3967 32.6375 40.3321 32.5025 41.25 32.9167L41.6667 30.4167C40.6238 30.4167 40.0546 29.3979 39.1667 28.75C40.6267 29.0237 41.8179 29.6404 43.3333 29.5833C43.0938 31.6092 43.265 33.1062 41.6667 34.5833L42.5 38.75C41.2525 37.7429 40.3763 36.8158 38.75 36.6667L39.1667 35.4167C38.2708 35.3962 37.5338 35.2342 36.6667 35V36.25C38.1596 36.9233 39.6479 37.5742 41.25 37.9167C40.9108 40.2146 43.715 41.0779 42.9167 43.3333C43.8558 44.2933 44.5733 44.9554 45.8333 45.4167C43.1 45.2942 42.0329 42.2237 39.1667 42.0833C38.0983 40.6812 36.4892 39.8254 35.4167 38.3333C35.0371 38.9071 34.8317 39.35 34.5833 40L32.9167 39.5833C33.1438 38.9021 33.0688 38.9771 33.75 38.75C32.9383 38.6617 32.8642 38.7608 32.0833 39.1667C32.455 38.3587 32.6675 38.1171 33.3333 37.5C32.7096 37.3004 32.7708 37.3333 32.0833 37.5L31.6667 37.0833C32.2 35.2162 32.2121 33.1146 31.6667 31.25C32.5517 30.8754 32.5421 30.885 32.9167 30C31.9271 30.4779 31.0667 30.9721 30 31.25C30.8271 30.7179 31.1875 30.4246 31.6667 29.5833C29.3433 30.3546 27.1675 29.7121 25.8333 32.0833C25.2113 31.6671 25.3058 31.68 24.5833 31.6667V30.8333C23.3971 31.0704 22.7513 30.41 22.5 31.6667C21.1263 30.95 19.86 30.2908 18.3333 30C20.7571 28.8529 22.7358 28.335 25.4167 28.3333C22.8088 27.2392 20.2846 28.4337 17.9167 29.5833V30.4167L22.9167 32.5C21.9088 35.6787 21.8929 38.8137 22.5 42.0833C22.9488 40.8321 22.5171 39.6512 22.5871 38.3333C22.6788 36.6158 23.1092 35.0654 22.9167 33.3333C24.2467 33.3479 25.1833 33.3575 26.25 34.1667L25.4167 33.75C25.7446 37.7825 26.7992 41.2704 28.345 45C29.2167 47.1029 30.4292 49.3117 32.9167 49.1667C32.2179 51.0421 32.6163 52.3483 33.3333 54.1667C34.0579 53.1921 34.28 52.2562 32.9167 52.0833L33.3333 50.8333L32.5 51.25L32.9167 50C33.4108 50.4942 33.5767 50.6367 34.1667 50.8333V49.1667C35.7908 52.0971 35.6417 55.5046 35.9438 58.75C36.2208 61.7283 36.8129 64.0512 36.25 67.0833C37.6221 65.8846 37.4854 62.605 37.4979 60.8333C37.5217 57.4958 36.4858 54.7987 35.8513 51.6504C35.215 48.4912 35.2 45.2642 34.5833 42.0833C36.6313 42.4696 38.5546 42.8287 40.4167 43.8225C42.3538 44.8567 43.9346 46.4571 46.25 46.5567C46.9433 46.5867 47.6637 46.4879 48.3329 46.3071C53.6625 44.865 50.3238 39.0767 48.9575 35.8333C48.0504 33.6792 47.3308 31.47 46.9229 29.1667C46.6654 27.7121 46.8383 25.9833 46.0596 24.6767C45.4642 23.6767 44.3396 23.2179 43.5621 22.3879C40.2854 18.8875 35.83 14.1829 35.4167 9.16667C34.5896 11.1575 35.6004 13.0762 36.25 15C38.4529 15.2879 37.2983 18.9329 35.8333 19.5833C36.39 18.8229 36.5375 18.4362 36.6667 17.5C35.9142 17.2583 35.3604 17.0987 34.5833 17.0833V15.4167C33.9771 16.2171 33.6654 16.9629 33.3333 17.9167L32.5 17.5L32.0833 17.9167C33.0483 18.4958 33.0725 19.22 33.3333 17.9167L33.75 19.5833C32.075 19.3212 30.4463 19.1762 28.75 19.1667V17.9167H27.0833C28.6517 17.3221 30.0129 17.4429 31.6667 17.5C30.98 17.115 30.3438 16.8962 29.5833 16.6667L28.75 13.75L27.5 14.1667C27.2388 12.6312 26.3967 11.9175 25 11.25C24.6313 9.2625 22.8254 8.61417 21.4063 7.32625C18.9921 5.13542 17.0767 1.46667 14.1667 0ZM27.9167 0C29.7608 5.6575 32.9125 11.0408 32.9167 17.0833C34.2517 14.3275 34.2958 11.2579 35 8.33333C34.5021 8.84292 34.4517 8.925 34.1667 9.58333H33.3333L30.8333 4.16667C31.3275 4.66083 31.4933 4.80333 32.0833 5C31.1742 3.0125 29.7642 1.18583 27.9167 0ZM32.0833 5.41667C32.6233 6.6425 33.1496 7.46417 34.1667 8.33333C33.6492 7.11333 33.0708 6.30083 32.0833 5.41667ZM19.1667 5.83333L19.5833 6.66667H18.75C18.75 5.89458 18.625 6.10417 19.1667 5.83333ZM20.4167 7.5L24.5833 10.4167C24.0633 10.7021 23.9383 10.7287 23.3333 10.8333C23.9492 11.2442 23.8346 11.25 24.5833 11.25C23.9558 11.5346 23.6188 11.5942 22.9167 11.6667L27.0833 13.3333C24.4496 13.6604 19.2771 10.6954 20.4167 7.5ZM20.4167 8.33333C21.0258 9.34708 21.37 9.65708 22.5 10C21.8383 9.32208 21.2175 8.84417 20.4167 8.33333ZM27.0833 11.6667C27.5429 12.2737 27.7263 12.4571 28.3333 12.9167C27.9575 12.1158 27.885 12.0837 27.0833 11.6667ZM34.5833 12.9167L34.1667 15H35C34.9288 14.2337 34.8804 13.6167 34.5833 12.9167ZM35.9721 16.5279C35.9492 16.5508 35.9258 16.9908 36.1113 16.8054C36.1342 16.7825 36.1575 16.3425 35.9721 16.5279ZM26.6667 17.2221C26.9888 17.2221 26.7333 17.4296 26.5279 17.3612L26.6667 17.2221ZM35.8333 22.0833H33.3333C34.3121 21.5025 35.0158 21.2212 35.8333 22.0833ZM27.5 22.9167C27.0633 23.69 26.87 24.1433 26.6667 25C27.2538 24.2675 27.515 23.8492 27.5 22.9167ZM21.25 24.1667V25.4167C20.96 24.7692 20.96 24.8142 21.25 24.1667ZM29.1667 24.1667V25.4167C29.4567 24.7692 29.4567 24.8142 29.1667 24.1667ZM44.5833 24.3054C44.9054 24.3054 44.65 24.5129 44.4446 24.4446L44.5833 24.3054ZM38.3333 24.5833L39.5833 25C38.9492 25.3562 37.9396 25.5367 38.3333 24.5833ZM24.4446 25.5554C24.2592 25.7408 24.6992 25.7175 24.7221 25.6946C24.9075 25.5092 24.4675 25.5325 24.4446 25.5554ZM27.0833 27.9167C28.705 28.4092 30.5313 27.6687 32.0833 27.0833C30.2796 25.9254 28.8467 27.2283 27.0833 27.9167ZM42.0833 26.25C42.3858 27.1579 42.2663 26.9917 42.9167 26.6667C42.1717 27.2587 41.7892 27.3737 40.8333 27.5C41.2929 26.8929 41.4763 26.7096 42.0833 26.25ZM45.8333 26.6667L46.25 27.5C45.7238 27.0954 45.67 27.2108 45.8333 26.6667ZM45.6946 28.1946C45.7175 28.2175 45.7408 28.6575 45.5554 28.4721C45.5325 28.4492 45.5092 28.0092 45.6946 28.1946ZM9.58333 30.8333L12.5 29.1667C11.0675 28.8187 10.07 29.4758 9.58333 30.8333ZM27.5 30.9721C27.8221 30.9721 27.5667 31.1796 27.3613 31.1113L27.5 30.9721ZM9.16667 31.25C6.08625 34.0604 4.41375 35.7421 0 35.8333C3.40125 37.2604 8.38083 34.9371 9.16667 31.25ZM27.9167 31.6667C26.6025 32.8967 25.4608 32.8921 23.75 32.5C25.0488 32.0137 26.5417 32.0371 27.9167 31.6667ZM36.25 31.6667L35.8333 33.3333C36.9708 33.32 38.0413 33.5904 39.1667 33.75L38.75 32.5C38.0013 32.5 38.1163 32.5058 37.5 32.9167C37.5 32.1679 37.4942 32.2829 37.0833 31.6667H36.25ZM28.3333 33.3333C28.3342 34.6621 28.1696 36.2038 28.7058 37.4546C29.2879 38.8129 30.7496 39.0433 31.6217 40.1258C33.4179 42.3562 34.4458 46.3621 34.1667 49.1667C32.1829 46.3979 32.5721 41.6904 30 39.5833L30.4167 40.4167C29.6679 40.4167 29.7829 40.4108 29.1667 40L28.75 40.4167L30 40.8333L29.5833 42.9167C30.4358 43.5725 30.4692 43.9246 30.4167 45C32.055 46.0042 32.1592 47.3662 32.5 49.1667C31.0088 48.2804 30.4271 47.0696 30 45.4167C29.5738 46.0558 29.6646 46.0008 29.1667 46.25C28.7558 45.6337 28.75 45.7487 28.75 45L29.5833 45.4167C29.0425 44.2062 28.4733 43.4 27.5 42.5C27.6246 41.5033 27.6333 41.2317 27.0833 40.4167L27.5 37.9167L27.0833 38.75C26.7938 37.5442 27.0579 36.2546 27.0833 35L26.6667 35.8333C26.4554 34.9667 26.5679 34.2342 26.6667 33.3333H28.3333ZM46.1113 33.6113C46.1342 33.6342 46.1575 34.0742 45.9721 33.8887C45.9492 33.8658 45.9258 33.4258 46.1113 33.6113ZM23.8887 34.0279C23.8658 34.0508 23.8425 34.4908 24.0279 34.3054C24.0508 34.2825 24.0742 33.8425 23.8887 34.0279ZM27.6387 34.4446C27.6158 34.4675 27.5925 34.9075 27.7779 34.7221C27.8008 34.6992 27.8242 34.2592 27.6387 34.4446ZM45 34.5833L46.25 35V36.25C45.2467 35.9608 44.845 35.6525 45 34.5833ZM44.1667 35C44.26 35.7017 44.2575 35.9637 44.1667 36.6667C44.9154 36.6667 44.8008 36.6725 45.4167 37.0833C44.9617 38.33 45.2704 38.7325 46.25 39.5833C46.345 40.4671 46.3125 40.3708 47.0833 40.8333C46.6275 39.4512 46.3013 38.4712 47.5 37.5C47.8329 39.03 48.2963 40.5846 50 40.8333L50.4167 42.9167C49.1271 43.1704 48.3213 42.9442 47.0833 42.5L47.5 44.5833L43.3333 41.25C44.02 40.865 44.6563 40.6462 45.4167 40.4167C44.6858 40.1917 44.8188 40.1517 44.1667 40.4167L42.5 39.1667C42.7492 38.6687 42.6942 38.7596 43.3333 38.3333C42.7371 37.4237 42.78 36.9271 42.9167 35.8333L43.75 36.25C43.8546 35.645 43.8813 35.52 44.1667 35ZM26.5279 36.5279C26.5508 36.5508 26.5742 36.9908 26.3887 36.8054C26.3658 36.7825 26.3425 36.3425 26.5279 36.5279ZM42.9167 37.9167C43.6467 37.6817 43.9758 37.5337 44.5833 37.0833C43.5854 37.0237 43.5054 37.0946 42.9167 37.9167ZM35.8333 37.5C36.5871 37.7392 36.6954 37.6937 37.5 37.5C36.8088 37.3308 36.5658 37.3712 35.8333 37.5ZM37.9167 37.9167L37.5 38.75H38.3333C38.3333 37.9779 38.4583 38.1875 37.9167 37.9167ZM28.1946 38.8887C28.0092 39.0742 28.4492 39.0508 28.4721 39.0279C28.6575 38.8425 28.2175 38.8658 28.1946 38.8887ZM38.75 39.1667V40H39.5833V39.1667H38.75ZM20.8333 40.4167V42.0833C21.1292 41.35 21.1292 41.15 20.8333 40.4167ZM45.4167 40.4167L45 41.25C45.5263 40.8454 45.58 40.9608 45.4167 40.4167ZM22.9167 42.5C23.2013 43.825 23.6158 45.0121 24.1667 46.25C24.4629 44.8175 23.8146 43.6129 22.9167 42.5ZM44.1667 42.9167C44.7738 43.3762 44.9571 43.5596 45.4167 44.1667L43.75 43.3333L44.1667 42.9167ZM24.5833 44.1667C25.0433 45.1487 25.3983 45.5733 26.25 46.25C25.7392 45.4492 25.2613 44.8283 24.5833 44.1667ZM47.0833 45.4167C46.425 45.1317 46.3429 45.0812 45.8333 44.5833C46.4917 44.8683 46.5738 44.9187 47.0833 45.4167ZM47.9167 45.1387C48.2388 45.1387 47.9833 45.3463 47.7779 45.2779L47.9167 45.1387ZM46.25 45.9721L46.3887 46.1113C46.1833 46.1796 45.9279 45.9721 46.25 45.9721ZM24.5833 46.6667V47.9167C24.8733 47.2692 24.8733 47.3142 24.5833 46.6667ZM23.8887 47.7779C23.8658 47.8008 23.8425 48.2408 24.0279 48.0554C24.0508 48.0325 24.0742 47.5925 23.8887 47.7779ZM25.4167 48.3333L26.6667 52.0833C27.0638 50.6358 26.3396 49.4529 25.4167 48.3333ZM24.5833 49.5833L25.8333 53.75C26.3771 52.1817 25.6483 50.7679 24.5833 49.5833ZM33.75 52.0833V53.3333C33.46 52.6858 33.46 52.7308 33.75 52.0833ZM27.0833 52.5C27.3683 53.1583 27.4188 53.2404 27.9167 53.75C27.6288 53.1717 27.5063 52.9746 27.0833 52.5ZM26.25 54.1667L27.9167 60.8333C28.6288 58.8429 27.4388 55.8262 26.25 54.1667ZM28.4721 55.6946C28.4492 55.7175 28.4258 56.1575 28.6113 55.9721C28.6342 55.9492 28.6575 55.5092 28.4721 55.6946ZM28.3333 61.25L28.75 70C30.3233 67.9233 29.5029 63.45 28.3333 61.25Z" fill="#F52526"/>
</svg>
